<?xml version="1.0" standalone="no"?>
<!DOCTYPE svg PUBLIC "-//W3C//DTD SVG 20010904//EN"
 "http://www.w3.org/TR/2001/REC-SVG-20010904/DTD/svg10.dtd">
<svg version="1.0" xmlns="http://www.w3.org/2000/svg"
 width="96.000000pt" height="96.000000pt" viewBox="0 0 96.000000 96.000000"
 preserveAspectRatio="xMidYMid meet">
<metadata>
Created by potrace 1.14, written by Peter Selinger 2001-2017
</metadata>
<g transform="translate(0.000000,96.000000) scale(0.100000,-0.100000)"
fill="#000000" stroke="none">
<path d="M132 828 c-15 -15 -16 -181 -2 -209 10 -17 22 -19 108 -19 107 0 122
6 122 52 l0 28 119 0 119 0 41 -41 41 -41 0 -119 0 -119 -28 0 c-15 0 -33 -5
-40 -12 -7 -7 -12 -25 -12 -40 l0 -28 -120 0 -120 0 0 28 c0 15 -5 33 -12 40
-16 16 -200 16 -216 0 -15 -15 -16 -181 -2 -209 10 -17 22 -19 108 -19 107 0
122 6 122 52 l0 28 120 0 c115 0 120 -1 120 -21 0 -11 5 -29 10 -40 10 -17 22
-19 108 -19 63 0 102 4 110 12 16 16 16 200 0 216 -7 7 -25 12 -40 12 l-28 0
0 120 0 120 38 34 c33 31 37 39 37 85 0 44 -4 55 -33 83 -28 29 -39 33 -83 33
-46 0 -54 -4 -85 -37 l-34 -38 -120 0 c-115 0 -120 1 -120 21 0 11 -5 29 -10
40 -10 17 -22 19 -108 19 -63 0 -102 -4 -110 -12z"/>
</g>
</svg>
